# File created by Blade
# Date/Time:  Wed Apr 08 17:12:12 2015
# Frame Rate: 120.000 fps
#------------------------------------------------------
:FULLY-SPECIFIED
:DEGREES
1097
root 5.870646 38.345862 4.947324 132.768090 -36.803466 -132.295760
Spine 52.931220 -3.060113 4.589971
Head -19.888086 18.129778 18.730255
LeftShoulder -5.807507 14.693785 25.596387
LeftArm 14.219961 28.066687 -75.503574
LeftForeArm 30.764046 -0.000000 38.470394
LeftHand -9.218657 0.000000 -15.924289
LeftHandThumb1 -26.253704 0.000000 33.147579
RightShoulder -37.595285 -51.797267 23.491749
RightArm 40.640015 -12.719972 73.699055
RightForeArm 35.053691 -0.000000 21.579354
RightHand -3.020394 -0.000000 11.641911
RightHandThumb1 -24.326973 -0.000000 -32.862282
LeftUpLeg 15.288488 45.731990 47.080237
LeftLeg 15.735129 -0.000000 -0.000000
LeftFoot -16.094866 0.756327 -17.503259
LeftToeBase 6.805264 -0.000000 -0.000000
RightUpLeg 40.519014 15.089765 -30.042839
RightLeg 137.557735 -0.000000 -0.000000
RightFoot 21.194207 9.930873 9.556125
RightToeBase -7.485771 -0.000000 0.000000
1098
root 5.880149 38.338295 4.964680 133.089732 -36.667975 -132.427876
Spine 52.837827 -3.025025 4.559744
Head -19.982297 18.237425 18.618540
LeftShoulder -5.867716 14.783585 25.476326
LeftArm 14.316762 28.287571 -75.300775
LeftForeArm 30.649938 0.000000 38.692456
LeftHand -9.527528 -0.000000 -15.769902
LeftHandThumb1 -26.253704 0.000000 33.147579
RightShoulder -37.776188 -51.891408 23.607010
RightArm 40.607431 -12.912552 73.515981
RightForeArm 35.123489 -0.000000 21.948880
RightHand -3.130162 -0.000000 11.508841
RightHandThumb1 -24.326973 -0.000000 -32.862282
LeftUpLeg 15.088403 45.812462 46.888713
LeftLeg 15.778015 -0.000000 -0.000000
LeftFoot -16.191625 1.007237 -17.393486
LeftToeBase 6.767860 -0.000000 -0.000000
RightUpLeg 40.574820 15.150894 -29.940762
RightLeg 137.662276 -0.000000 -0.000000
RightFoot 21.614943 9.987627 9.812122
RightToeBase -6.803367 -0.000000 0.000000
1099
root 5.887150 38.331298 4.980758 133.374098 -36.528972 -132.552640
Spine 52.786218 -3.004038 4.511191
Head -20.061151 18.356770 18.536944
LeftShoulder -5.880248 14.801459 25.460234
LeftArm 14.302468 28.259790 -75.367564
LeftForeArm 30.735748 -0.000000 38.704729
LeftHand -9.444196 -0.000000 -15.841664
LeftHandThumb1 -26.253704 0.000000 33.147579
RightShoulder -37.890626 -51.947759 23.669041
RightArm 40.581035 -13.080907 73.342815
RightForeArm 35.206147 -0.000000 22.203788
RightHand -3.181010 -0.000000 11.660553
RightHandThumb1 -24.326973 -0.000000 -32.862282
LeftUpLeg 14.950151 45.919280 46.761704
LeftLeg 15.813425 -0.000000 -0.000000
LeftFoot -16.259416 1.200083 -17.300238
LeftToeBase 6.659267 -0.000000 -0.000000
RightUpLeg 40.656056 15.200694 -29.843842
RightLeg 137.758881 -0.000000 -0.000000
RightFoot 21.987180 10.018129 9.860430
RightToeBase -6.882039 -0.000000 0.000000
1100
root 5.898661 38.324210 4.999134 133.703793 -36.388509 -132.657962
Spine 52.673822 -2.972545 4.485391
Head -20.127487 18.466886 18.494111
LeftShoulder -5.835526 14.832884 25.477323
LeftArm 14.264436 28.182390 -75.471952
LeftForeArm 30.769742 -0.000000 38.714162
LeftHand -9.348613 -0.000000 -15.823398
LeftHandThumb1 -26.253704 0.000000 33.147579
RightShoulder -38.025446 -52.004550 23.779261
RightArm 40.529272 -13.297747 73.113017
RightForeArm 35.437531 -0.000000 22.568900
RightHand -3.220966 -0.000000 11.493788
RightHandThumb1 -24.326973 -0.000000 -32.862282
LeftUpLeg 14.725163 46.090641 46.609480
LeftLeg 15.885495 -0.000000 -0.000000
LeftFoot -16.330111 1.380971 -17.184160
LeftToeBase 6.516263 -0.000000 -0.000000
RightUpLeg 40.668523 15.219711 -29.760510
RightLeg 137.888266 -0.000000 -0.000000
RightFoot 22.237782 10.043028 9.865759
RightToeBase -6.720578 -0.000000 0.000000
1101
root 5.903915 38.318337 5.011393 133.906063 -36.247529 -132.738581
Spine 52.679122 -2.973811 4.468805
Head -20.214693 18.562765 18.403035
LeftShoulder -5.841999 14.853271 25.439264
LeftArm 14.243088 28.170820 -75.490910
LeftForeArm 30.732839 -0.000000 38.761675
LeftHand -9.362720 -0.000000 -15.772262
LeftHandThumb1 -26.253704 0.000000 33.147579
RightShoulder -38.083874 -52.039359 23.783149
RightArm 40.437149 -13.378738 73.093068
RightForeArm 35.451161 -0.000000 22.835517
RightHand -3.425264 -0.000000 11.644961
RightHandThumb1 -24.326973 -0.000000 -32.862282
LeftUpLeg 14.626640 46.201625 46.577157
LeftLeg 15.962229 -0.000000 -0.000000
LeftFoot -16.367411 1.527734 -17.031500
LeftToeBase 6.280011 -0.000000 -0.000000
RightUpLeg 40.816647 15.221814 -29.671169
RightLeg 137.960790 -0.000000 -0.000000
RightFoot 22.430920 10.043150 9.633450
RightToeBase -7.038235 -0.000000 0.000000
